<?xml version="1.0" encoding="UTF-8"?>
<svg id="Layer_1" data-name="Layer 1" xmlns="http://www.w3.org/2000/svg" viewBox="0 0 116.03 88.42">
  <path d="M98.29,7.4c-7.62-3.51-15.67-5.99-23.94-7.4-1.05,1.84-2.23,4.3-3.06,6.29-8.79-1.31-17.73-1.31-26.53,0-.94-2.15-1.99-4.25-3.15-6.29-8.28,1.4-16.34,3.9-23.96,7.43C2.55,29.95-1.56,51.94.49,73.59c8.87,6.59,18.8,11.6,29.37,14.82,2.38-3.22,4.48-6.64,6.29-10.21-3.43-1.28-6.75-2.87-9.9-4.73.82-.62,1.62-1.25,2.39-1.88,18.59,8.79,40.15,8.79,58.74,0,.79.65,1.6,1.28,2.42,1.89-3.16,1.87-6.48,3.47-9.92,4.75,1.81,3.57,3.91,6.97,6.29,10.19,10.57-3.21,20.51-8.22,29.37-14.82,2.39-25.1-4.13-46.89-17.27-66.2h.02ZM38.74,60.29c-5.73,0-10.43-5.25-10.43-11.69s4.59-11.73,10.43-11.73,10.49,5.25,10.44,11.7c-.05,6.45-4.61,11.72-10.44,11.72ZM77.29,60.29c-5.73,0-10.43-5.25-10.43-11.69s4.59-11.73,10.43-11.73,10.49,5.25,10.43,11.7-4.59,11.72-10.43,11.72Z" style="fill: #5b67af;"/>
</svg>