<?xml version="1.0" encoding="UTF-8"?>
<svg id="Layer_1" data-name="Layer 1" xmlns="http://www.w3.org/2000/svg" xmlns:xlink="http://www.w3.org/1999/xlink" viewBox="0 0 85.6 110.51">
  <defs>
    <linearGradient id="linear-gradient" x1="70.97" y1="26.94" x2="2.96" y2="94.96" gradientTransform="translate(0 111.99) scale(1 -1)" gradientUnits="userSpaceOnUse">
      <stop offset="0" stop-color="#f05042"/>
      <stop offset="1" stop-color="#ed1941"/>
    </linearGradient>
  </defs>
  <path d="M35.81,72.09c-.09.32-.18.58-.25.85-4.06,15.91-4.51,19.44-8.68,26.82-1.99,3.51-4.23,6.84-6.71,10.02-.28.36-.54.83-1.1.71-.61-.13-.66-.68-.73-1.17-.67-4.83-1.04-9.68-.88-14.56.21-6.36,1-8.54,9.19-42.99.12-.53-.01-.96-.19-1.44-1.96-5.29-2.35-10.66-.64-16.1,3.71-11.75,17.03-12.65,19.36-2.96,1.43,6-2.36,13.85-5.28,25.45-2.41,9.57,8.85,16.38,18.48,9.39,8.88-6.44,12.33-21.89,11.67-32.83-1.29-21.82-25.22-26.54-40.4-19.51-17.4,8.05-21.36,29.62-13.5,39.48,1,1.26,1.76,2.02,1.44,3.29-.51,1.97-.95,3.96-1.5,5.93-.41,1.46-1.63,1.99-3.11,1.39-2.9-1.17-5.31-3.02-7.27-5.45-6.67-8.26-8.58-24.61.24-38.45C15.74,4.65,33.93-1.55,50.53.33c19.83,2.26,32.36,15.8,34.71,31.17,1.07,7,.3,24.27-9.53,36.47-11.31,14.02-29.64,14.95-38.09,6.35-.65-.66-1.17-1.43-1.81-2.22h0Z" style="fill: url(#linear-gradient); fill-rule: evenodd;"/>
</svg>