<?xml version="1.0" encoding="UTF-8"?>
<svg id="Layer_1" data-name="Layer 1" xmlns="http://www.w3.org/2000/svg" viewBox="0 0 113.1 93.51">
  <path d="M6.94,40.73S56.96,20.2,74.31,12.97c6.65-2.89,29.2-12.14,29.2-12.14,0,0,10.41-4.05,9.54,5.78-.29,4.05-2.6,18.22-4.92,33.54-3.47,21.69-7.23,45.39-7.23,45.39,0,0-.58,6.65-5.49,7.81-4.92,1.16-13.01-4.05-14.46-5.2-1.16-.87-21.69-13.88-29.2-20.24-2.02-1.73-4.34-5.2.29-9.25,10.41-9.54,22.84-21.4,30.36-28.91,3.47-3.47,6.94-11.57-7.52-1.74-20.53,14.17-40.77,27.47-40.77,27.47,0,0-4.63,2.89-13.3.29-8.67-2.6-18.79-6.07-18.79-6.07,0,0-6.94-4.34,4.92-8.96h0Z" style="fill: #30b5e3;"/>
</svg>