<?xml version="1.0" encoding="UTF-8"?>
<svg id="Layer_1" data-name="Layer 1" xmlns="http://www.w3.org/2000/svg" xmlns:xlink="http://www.w3.org/1999/xlink" viewBox="0 0 100.26 100.51">
  <defs>
    <linearGradient id="linear-gradient" x1="82.77" y1="4.55" x2="10.53" y2="76.79" gradientTransform="translate(0 102) scale(1 -1)" gradientUnits="userSpaceOnUse">
      <stop offset="0" stop-color="#6fc05e"/>
      <stop offset="1" stop-color="#0bb25b"/>
    </linearGradient>
    <linearGradient id="linear-gradient-2" x1="88.4" y1="10.18" x2="16.17" y2="82.42" gradientTransform="translate(0 102) scale(1 -1)" gradientUnits="userSpaceOnUse">
      <stop offset="0" stop-color="#6fc05e"/>
      <stop offset="1" stop-color="#0bb25b"/>
    </linearGradient>
  </defs>
  <path d="M0,100.51l7.21-26.89c-4.08-7.36-6.23-15.61-6.23-23.98C.98,22.27,23.25,0,50.62,0s49.64,22.27,49.64,49.64-22.27,49.64-49.64,49.64c-8.22,0-16.33-2.07-23.6-6.01L0,100.51ZM28.37,83.2l1.7,1.02c6.25,3.72,13.36,5.69,20.55,5.69,22.2,0,40.26-18.06,40.26-40.26S72.82,9.38,50.62,9.38,10.36,27.44,10.36,49.64c0,7.33,2.04,14.55,5.89,20.87l1.04,1.71-4.02,15.01,15.1-4.05v.02Z" style="fill: url(#linear-gradient);"/>
  <path d="M69.09,56.55c-2.04-1.22-4.7-2.59-7.11-1.6-1.85.76-3.03,3.65-4.22,5.12-.61.76-1.35.88-2.29.5-6.93-2.76-12.24-7.39-16.07-13.77-.65-.99-.53-1.77.25-2.69,1.16-1.36,2.61-2.91,2.92-4.74.31-1.83-.55-3.98-1.31-5.61-.97-2.09-2.05-5.06-4.14-6.24-1.92-1.09-4.45-.48-6.16.92-2.95,2.41-4.38,6.18-4.34,9.91.01,1.06.14,2.12.39,3.14.6,2.46,1.74,4.77,3.02,6.95.97,1.65,2.02,3.25,3.15,4.79,3.71,5.04,8.32,9.41,13.66,12.69,2.67,1.63,5.54,3.07,8.52,4.05,3.34,1.1,6.31,2.25,9.92,1.57,3.77-.72,7.5-3.05,8.99-6.69.44-1.08.66-2.28.42-3.41-.51-2.35-3.7-3.75-5.6-4.89Z" style="fill: url(#linear-gradient-2); fill-rule: evenodd;"/>
</svg>