<svg xmlns="http://www.w3.org/2000/svg" xmlns:xlink="http://www.w3.org/1999/xlink" width="500" zoomAndPan="magnify" viewBox="0 0 375 187.499995" height="250" preserveAspectRatio="xMidYMid meet" version="1.2"><defs><clipPath id="9dd6e27c0f"><rect x="0" width="337" y="0" height="175"/></clipPath><clipPath id="4b5a78c41a"><path d="M 47 102 L 326 102 L 326 154 L 47 154 Z M 47 102 "/></clipPath><clipPath id="192b6a7fdc"><path d="M 45.898438 137.945312 L 326.832031 99.925781 L 329.738281 121.421875 L 48.808594 159.441406 Z M 45.898438 137.945312 "/></clipPath><clipPath id="29c6bf2f13"><path d="M 45.898438 137.945312 L 326.832031 99.925781 L 329.738281 121.421875 L 48.808594 159.441406 Z M 45.898438 137.945312 "/></clipPath><clipPath id="03af1a43b4"><path d="M 52 100 L 327 100 L 327 159 L 52 159 Z M 52 100 "/></clipPath><clipPath id="a0e1c0f374"><path d="M 45.898438 137.945312 L 326.832031 99.925781 L 329.738281 121.421875 L 48.808594 159.441406 Z M 45.898438 137.945312 "/></clipPath><clipPath id="43a6bea872"><path d="M 45.898438 137.945312 L 326.832031 99.925781 L 329.738281 121.421875 L 48.808594 159.441406 Z M 45.898438 137.945312 "/></clipPath><clipPath id="df2f6eff45"><path d="M 54 107 L 316 107 L 316 157 L 54 157 Z M 54 107 "/></clipPath><clipPath id="c93135b532"><path d="M 45.898438 137.945312 L 326.832031 99.925781 L 329.738281 121.421875 L 48.808594 159.441406 Z M 45.898438 137.945312 "/></clipPath><clipPath id="87aca53ac4"><path d="M 45.898438 137.945312 L 326.832031 99.925781 L 329.738281 121.421875 L 48.808594 159.441406 Z M 45.898438 137.945312 "/></clipPath></defs><g id="0fbd0d6dea"><g transform="matrix(1,0,0,1,17,0)"><g clip-path="url(#9dd6e27c0f)"><g style="fill:#c81725;fill-opacity:1;"><g transform="translate(40.394215, 132.023409)"><path style="stroke:none" d="M -2.921875 -31.75 C -3.515625 -34.820312 -2.535156 -38.535156 0.015625 -42.890625 C 2.566406 -47.253906 6.328125 -51.359375 11.296875 -55.203125 C 16.273438 -59.054688 21.488281 -61.5625 26.9375 -62.71875 C 30.238281 -63.425781 33.265625 -63.632812 36.015625 -63.34375 C 38.773438 -63.050781 40.992188 -62.445312 42.671875 -61.53125 C 44.359375 -60.613281 45.832031 -59.46875 47.09375 -58.09375 C 49.082031 -55.863281 50.351562 -53.441406 50.90625 -50.828125 C 51.832031 -46.484375 49.984375 -40.984375 45.359375 -34.328125 C 40.742188 -27.679688 34.09375 -20.585938 25.40625 -13.046875 C 24.175781 -11.921875 23.597656 -11.1875 23.671875 -10.84375 C 23.710938 -10.664062 24.707031 -10.785156 26.65625 -11.203125 C 28.601562 -11.617188 31.25 -11.847656 34.59375 -11.890625 C 37.945312 -11.941406 41.566406 -11.378906 45.453125 -10.203125 C 49.335938 -9.023438 52.695312 -7.195312 55.53125 -4.71875 C 55.738281 -4.582031 55.859375 -4.425781 55.890625 -4.25 C 55.929688 -4.082031 55.847656 -3.972656 55.640625 -3.921875 C 55.441406 -3.878906 53.722656 -3.863281 50.484375 -3.875 C 47.242188 -3.882812 42.882812 -3.65625 37.40625 -3.1875 C 31.925781 -2.71875 26.734375 -1.960938 21.828125 -0.921875 C 16.929688 0.117188 13.085938 0.984375 10.296875 1.671875 C 7.503906 2.359375 5.050781 3.0625 2.9375 3.78125 C 0.820312 4.507812 -0.675781 5.0625 -1.5625 5.4375 C -2.457031 5.8125 -3.945312 6.515625 -6.03125 7.546875 C -9.144531 9.128906 -11.019531 9.988281 -11.65625 10.125 C -12.300781 10.257812 -13.609375 10.09375 -15.578125 9.625 C -17.554688 9.164062 -18.660156 8.390625 -18.890625 7.296875 C -19.003906 6.773438 -18.765625 6.207031 -18.171875 5.59375 C -16.710938 4.195312 -13.171875 2.175781 -7.546875 -0.46875 C -1.929688 -3.125 2.503906 -4.894531 5.765625 -5.78125 C 6.410156 -5.914062 8.898438 -7.804688 13.234375 -11.453125 C 17.578125 -15.109375 22.300781 -19.398438 27.40625 -24.328125 C 32.507812 -29.253906 36.9375 -34.570312 40.6875 -40.28125 C 44.445312 -46 45.960938 -50.566406 45.234375 -53.984375 C 44.628906 -56.828125 41.398438 -57.625 35.546875 -56.375 C 33.453125 -55.925781 30.957031 -55.03125 28.0625 -53.6875 C 25.175781 -52.34375 22.535156 -50.875 20.140625 -49.28125 C 17.753906 -47.6875 15.070312 -45.40625 12.09375 -42.4375 C 9.125 -39.46875 6.429688 -36.117188 4.015625 -32.390625 C 2.785156 -30.429688 2.269531 -28.988281 2.46875 -28.0625 C 2.601562 -27.425781 3.132812 -27.207031 4.0625 -27.40625 C 6.257812 -27.9375 9.65625 -29.851562 14.25 -33.15625 C 18.851562 -36.46875 22.234375 -40.050781 24.390625 -43.90625 C 25.160156 -45.394531 25.722656 -46.179688 26.078125 -46.265625 C 26.472656 -46.109375 26.691406 -45.914062 26.734375 -45.6875 C 27.523438 -41.96875 25.625 -37.378906 21.03125 -31.921875 C 16.4375 -26.460938 12.132812 -23.304688 8.125 -22.453125 C 7.4375 -22.304688 6.453125 -22.382812 5.171875 -22.6875 C 3.898438 -22.988281 2.8125 -23.40625 1.90625 -23.9375 C 1 -24.476562 0.0703125 -25.421875 -0.875 -26.765625 C -1.820312 -28.109375 -2.503906 -29.769531 -2.921875 -31.75 Z M -2.921875 -31.75 "/></g></g><g style="fill:#c81725;fill-opacity:1;"><g transform="translate(88.222305, 121.905261)"><path style="stroke:none" d="M 14.8125 -6.71875 L 14.40625 -12.4375 C 14.363281 -12.601562 14.296875 -12.675781 14.203125 -12.65625 C 14.117188 -12.644531 13.992188 -12.503906 13.828125 -12.234375 C 13.222656 -11.265625 12.453125 -10.070312 11.515625 -8.65625 C 10.585938 -7.238281 8.910156 -5.25 6.484375 -2.6875 C 4.066406 -0.125 1.984375 1.328125 0.234375 1.671875 C -0.0546875 1.671875 -0.4375 1.640625 -0.90625 1.578125 C -1.375 1.523438 -2.035156 1.160156 -2.890625 0.484375 C -3.742188 -0.191406 -4.320312 -1.285156 -4.625 -2.796875 C -4.925781 -4.316406 -4.234375 -6.851562 -2.546875 -10.40625 C -0.867188 -13.96875 1.273438 -17.5625 3.890625 -21.1875 C 6.503906 -24.8125 9.554688 -28.117188 13.046875 -31.109375 C 16.535156 -34.097656 19.734375 -35.875 22.640625 -36.4375 C 23.753906 -36.59375 24.785156 -35.976562 25.734375 -34.59375 C 26.191406 -35.289062 26.65625 -35.6875 27.125 -35.78125 C 27.59375 -35.875 28.210938 -35.632812 28.984375 -35.0625 C 29.335938 -35.070312 29.722656 -34.953125 30.140625 -34.703125 C 30.554688 -34.453125 30.820312 -34.035156 30.9375 -33.453125 C 31.050781 -32.867188 30.765625 -32.144531 30.078125 -31.28125 C 29.160156 -29.53125 28.070312 -27.535156 26.8125 -25.296875 C 25.5625 -23.066406 24.671875 -21.457031 24.140625 -20.46875 C 23.609375 -19.488281 23.066406 -18.398438 22.515625 -17.203125 C 21.597656 -15.148438 21.191406 -13.5625 21.296875 -12.4375 C 26.660156 -16.457031 34.785156 -24.425781 45.671875 -36.34375 C 46.273438 -36.039062 46.632812 -35.597656 46.75 -35.015625 C 46.863281 -34.441406 46.722656 -33.90625 46.328125 -33.40625 C 45.941406 -32.90625 45.472656 -32.296875 44.921875 -31.578125 C 44.378906 -30.867188 43.285156 -29.472656 41.640625 -27.390625 C 39.992188 -25.316406 38.40625 -23.332031 36.875 -21.4375 C 35.34375 -19.539062 33.582031 -17.414062 31.59375 -15.0625 C 29.613281 -12.707031 27.828125 -10.671875 26.234375 -8.953125 C 22.378906 -4.878906 19.898438 -2.734375 18.796875 -2.515625 C 17.691406 -2.296875 16.835938 -2.492188 16.234375 -3.109375 C 15.640625 -3.722656 15.164062 -4.925781 14.8125 -6.71875 Z M 5.1875 -8.625 C 5.894531 -8.769531 7.753906 -10.617188 10.765625 -14.171875 C 13.773438 -17.722656 16.597656 -21.234375 19.234375 -24.703125 L 23.28125 -29.953125 C 23.46875 -30.234375 23.550781 -30.414062 23.53125 -30.5 C 23.519531 -30.582031 23.425781 -30.609375 23.25 -30.578125 C 21.039062 -30.140625 18.410156 -28.304688 15.359375 -25.078125 C 12.304688 -21.859375 9.765625 -18.582031 7.734375 -15.25 C 5.703125 -11.914062 4.785156 -9.753906 4.984375 -8.765625 C 5.003906 -8.648438 5.070312 -8.601562 5.1875 -8.625 Z M 5.1875 -8.625 "/></g></g><g style="fill:#c81725;fill-opacity:1;"><g transform="translate(121.83705, 115.191744)"><path style="stroke:none" d="M 37.875 -12.390625 C 37.96875 -11.867188 38.347656 -11.664062 39.015625 -11.78125 C 39.691406 -11.90625 40.847656 -12.535156 42.484375 -13.671875 C 44.117188 -14.816406 46.019531 -16.457031 48.1875 -18.59375 C 50.363281 -20.726562 53.226562 -23.722656 56.78125 -27.578125 C 60.34375 -31.441406 63.476562 -34.726562 66.1875 -37.4375 C 66.78125 -37.113281 67.128906 -36.660156 67.234375 -36.078125 C 67.335938 -35.503906 67.171875 -34.9375 66.734375 -34.375 C 65.191406 -32.238281 63.226562 -29.554688 60.84375 -26.328125 C 58.46875 -23.097656 54.753906 -18.679688 49.703125 -13.078125 C 44.660156 -7.472656 40.976562 -4.460938 38.65625 -4.046875 C 34.164062 -3.242188 31.492188 -5.238281 30.640625 -10.03125 C 30.316406 -11.832031 30.671875 -13.847656 31.703125 -16.078125 L 34.546875 -21.90625 C 34.796875 -22.5 34.910156 -22.835938 34.890625 -22.921875 C 34.878906 -23.003906 34.726562 -22.875 34.4375 -22.53125 C 25.800781 -12.25 20.21875 -6.128906 17.6875 -4.171875 C 17.257812 -3.785156 16.703125 -3.53125 16.015625 -3.40625 C 14.078125 -3.0625 12.953125 -3.769531 12.640625 -5.53125 C 12.535156 -6.113281 12.59375 -6.660156 12.8125 -7.171875 C 15.3125 -12.679688 17.3125 -16.441406 18.8125 -18.453125 L 20.046875 -20.21875 C 20.128906 -20.34375 20.160156 -20.460938 20.140625 -20.578125 C 20.117188 -20.703125 20.050781 -20.753906 19.9375 -20.734375 C 19.820312 -20.710938 19.671875 -20.5625 19.484375 -20.28125 L 11.453125 -11.265625 C 6.785156 -6.023438 4.226562 -3.226562 3.78125 -2.875 C 3.332031 -2.53125 2.898438 -2.320312 2.484375 -2.25 C 2.078125 -2.175781 1.390625 -2.3125 0.421875 -2.65625 C -0.535156 -3 -1.070312 -3.488281 -1.1875 -4.125 C -1.21875 -4.289062 -1.171875 -4.539062 -1.046875 -4.875 C 3.523438 -12.1875 6.757812 -18.125 8.65625 -22.6875 C 9.457031 -24.632812 10.15625 -26.367188 10.75 -27.890625 C 11.34375 -29.421875 11.835938 -30.519531 12.234375 -31.1875 C 12.628906 -31.851562 13.117188 -32.238281 13.703125 -32.34375 C 14.285156 -32.445312 15 -32.226562 15.84375 -31.6875 C 16.695312 -31.15625 17.1875 -30.539062 17.3125 -29.84375 C 17.445312 -29.144531 17.347656 -28.375 17.015625 -27.53125 C 15.660156 -23.613281 14.523438 -21.03125 13.609375 -19.78125 C 13.460938 -19.570312 13.398438 -19.394531 13.421875 -19.25 C 13.453125 -19.113281 13.523438 -19.054688 13.640625 -19.078125 L 13.890625 -19.203125 L 24.171875 -29.453125 C 26.765625 -32.023438 28.351562 -33.363281 28.9375 -33.46875 C 29.519531 -33.570312 30.179688 -33.492188 30.921875 -33.234375 C 31.660156 -32.972656 32.070312 -32.609375 32.15625 -32.140625 C 32.25 -31.679688 32.191406 -31.1875 31.984375 -30.65625 L 27.703125 -21.859375 C 27.109375 -20.796875 26.820312 -20.203125 26.84375 -20.078125 C 26.863281 -19.960938 26.898438 -19.910156 26.953125 -19.921875 L 27.34375 -20.265625 C 33.75 -26.523438 38.070312 -30.847656 40.3125 -33.234375 C 42.5625 -35.628906 43.90625 -37.140625 44.34375 -37.765625 C 45.050781 -38.503906 45.679688 -38.921875 46.234375 -39.015625 C 46.785156 -39.117188 47.160156 -39.125 47.359375 -39.03125 L 49.5625 -37.875 C 50.1875 -37.695312 50.539062 -37.375 50.625 -36.90625 C 50.707031 -36.4375 50.664062 -36.039062 50.5 -35.71875 C 47.726562 -31.351562 45.503906 -27.878906 43.828125 -25.296875 C 42.148438 -22.710938 40.941406 -20.8125 40.203125 -19.59375 C 39.003906 -17.507812 38.335938 -15.878906 38.203125 -14.703125 C 37.867188 -13.796875 37.757812 -13.023438 37.875 -12.390625 Z M 37.875 -12.390625 "/></g></g><g style="fill:#c81725;fill-opacity:1;"><g transform="translate(177.71352, 105.248159)"><path style="stroke:none" d="M 0.59375 -16.9375 C 3.4375 -19.6875 6.410156 -22.628906 9.515625 -25.765625 C 7.429688 -26.753906 6.03125 -27.816406 5.3125 -28.953125 C 5.070312 -29.335938 4.9375 -29.613281 4.90625 -29.78125 C 4.71875 -30.957031 4.96875 -31.796875 5.65625 -32.296875 C 6.351562 -32.804688 7.550781 -33.195312 9.25 -33.46875 C 9.894531 -33.570312 11.925781 -33.085938 15.34375 -32.015625 C 18.757812 -30.953125 20.890625 -30.488281 21.734375 -30.625 C 22.585938 -30.769531 23.734375 -31.210938 25.171875 -31.953125 C 26.609375 -32.691406 27.78125 -33.132812 28.6875 -33.28125 C 29.601562 -33.425781 30.300781 -33.332031 30.78125 -33 C 32.550781 -31.300781 33.46875 -30.242188 33.53125 -29.828125 C 33.601562 -29.421875 33.46875 -29.050781 33.125 -28.71875 C 32.789062 -28.394531 31.726562 -27.367188 29.9375 -25.640625 C 28.144531 -23.921875 26.398438 -22.171875 24.703125 -20.390625 C 23.015625 -18.617188 21.46875 -16.6875 20.0625 -14.59375 C 18.664062 -12.507812 18.054688 -10.90625 18.234375 -9.78125 C 18.265625 -9.613281 18.425781 -9.554688 18.71875 -9.609375 C 21.882812 -10.117188 31.492188 -18.242188 47.546875 -33.984375 C 47.953125 -34.054688 48.210938 -33.722656 48.328125 -32.984375 C 48.441406 -32.253906 46.535156 -29.363281 42.609375 -24.3125 C 38.691406 -19.269531 34.15625 -14.21875 29 -9.15625 C 23.851562 -4.09375 19.960938 -1.347656 17.328125 -0.921875 C 13.234375 -0.265625 10.851562 -1.976562 10.1875 -6.0625 C 9.832031 -8.289062 10.226562 -10.5625 11.375 -12.875 C 12.53125 -15.1875 15.222656 -18.488281 19.453125 -22.78125 C 18.460938 -22.613281 17.078125 -22.644531 15.296875 -22.875 C 13.523438 -23.101562 12.347656 -23.523438 11.765625 -24.140625 C 10.453125 -22.566406 8.179688 -19.890625 4.953125 -16.109375 C 4.179688 -15.328125 3.085938 -14.820312 1.671875 -14.59375 C 0.265625 -14.363281 -0.46875 -14.46875 -0.53125 -14.90625 C -0.601562 -15.34375 -0.226562 -16.019531 0.59375 -16.9375 Z M 0.59375 -16.9375 "/></g></g><g style="fill:#c81725;fill-opacity:1;"><g transform="translate(213.854047, 99.420382)"><path style="stroke:none" d="M 4.421875 -4.609375 C 6.296875 -4.890625 8.425781 -6.46875 10.8125 -9.34375 C 13.207031 -12.21875 14.394531 -14.132812 14.375 -15.09375 C 13.570312 -15.570312 12.660156 -16.53125 11.640625 -17.96875 C 10.628906 -19.40625 10.09375 -20.117188 10.03125 -20.109375 C 8.46875 -18.140625 7.144531 -15.9375 6.0625 -13.5 C 4.40625 -9.40625 3.679688 -6.660156 3.890625 -5.265625 C 3.960938 -4.785156 4.140625 -4.566406 4.421875 -4.609375 Z M 20.203125 -29 C 19.617188 -28.90625 18.535156 -27.8125 16.953125 -25.71875 C 15.378906 -23.632812 14.644531 -22.238281 14.75 -21.53125 C 14.78125 -21.351562 15.007812 -21.023438 15.4375 -20.546875 C 15.875 -20.078125 16.179688 -19.859375 16.359375 -19.890625 C 17.347656 -20.035156 18.296875 -21.398438 19.203125 -23.984375 C 20.109375 -26.578125 20.53125 -28.0625 20.46875 -28.4375 C 20.414062 -28.820312 20.328125 -29.007812 20.203125 -29 Z M 22.078125 -17.671875 C 23.710938 -17.921875 26.125 -19.300781 29.3125 -21.8125 C 32.507812 -24.332031 35.273438 -26.789062 37.609375 -29.1875 L 41.109375 -32.84375 C 41.691406 -32.507812 42.023438 -32.046875 42.109375 -31.453125 C 42.203125 -30.867188 42.019531 -30.3125 41.5625 -29.78125 C 33.226562 -19.351562 26.578125 -13.769531 21.609375 -13.03125 C 21.253906 -12.96875 20.71875 -12.945312 20 -12.96875 C 14.519531 -4.289062 9.410156 0.398438 4.671875 1.109375 C 1.421875 1.097656 -0.738281 0.28125 -1.8125 -1.34375 C -2.414062 -2.15625 -2.816406 -3.234375 -3.015625 -4.578125 C -3.597656 -8.441406 -2.066406 -13.390625 1.578125 -19.421875 C 5.234375 -25.453125 10.242188 -30.234375 16.609375 -33.765625 C 17.191406 -33.847656 17.648438 -33.78125 17.984375 -33.5625 C 18.328125 -33.351562 18.617188 -33.25 18.859375 -33.25 C 19.097656 -33.25 19.382812 -33.40625 19.71875 -33.71875 C 20.0625 -34.039062 20.550781 -34.265625 21.1875 -34.390625 C 21.832031 -34.523438 22.5625 -34.265625 23.375 -33.609375 C 24.425781 -32.984375 25.035156 -32.113281 25.203125 -31 C 25.691406 -27.71875 24.648438 -23.273438 22.078125 -17.671875 Z M 22.078125 -17.671875 "/></g></g><g style="fill:#c81725;fill-opacity:1;"><g transform="translate(242.435271, 95.139896)"><path style="stroke:none" d="M 9.546875 -7.859375 C 11.578125 -8.140625 13.285156 -9.648438 14.671875 -12.390625 C 16.054688 -15.128906 16.921875 -17.820312 17.265625 -20.46875 C 17.617188 -23.125 17.691406 -25.210938 17.484375 -26.734375 C 17.421875 -27.148438 17.078125 -27.316406 16.453125 -27.234375 C 15.835938 -27.148438 15.171875 -26.726562 14.453125 -25.96875 L 4.125 -15.484375 C 3.382812 -14.898438 2.484375 -14.535156 1.421875 -14.390625 C 0.367188 -14.242188 -0.207031 -14.550781 -0.3125 -15.3125 C -0.382812 -15.832031 -0.359375 -16.1875 -0.234375 -16.375 C -0.117188 -16.570312 0.257812 -16.929688 0.90625 -17.453125 C 4.84375 -21.046875 10.097656 -26.738281 16.671875 -34.53125 C 17.378906 -35.832031 18.085938 -36.53125 18.796875 -36.625 C 19.503906 -36.726562 20.707031 -36.664062 22.40625 -36.4375 C 24.113281 -36.21875 25.007812 -35.816406 25.09375 -35.234375 C 25.582031 -31.710938 25.703125 -28.46875 25.453125 -25.5 C 25.203125 -22.53125 24.84375 -20.25 24.375 -18.65625 C 23.90625 -17.070312 23.675781 -16.21875 23.6875 -16.09375 C 23.707031 -15.976562 23.773438 -15.925781 23.890625 -15.9375 C 24.015625 -15.957031 24.242188 -16.082031 24.578125 -16.3125 C 28.671875 -19.164062 33.773438 -23.585938 39.890625 -29.578125 L 41.78125 -31.453125 C 42.363281 -31.117188 42.695312 -30.65625 42.78125 -30.0625 C 42.863281 -29.476562 42.671875 -28.914062 42.203125 -28.375 C 42.078125 -28.351562 40.734375 -26.90625 38.171875 -24.03125 C 35.617188 -21.164062 32.765625 -18.035156 29.609375 -14.640625 C 26.453125 -11.242188 23.015625 -8.0625 19.296875 -5.09375 C 15.585938 -2.125 12.617188 -0.484375 10.390625 -0.171875 C 4.867188 0.585938 1.648438 -2.347656 0.734375 -8.984375 C 0.660156 -9.515625 0.8125 -10.03125 1.1875 -10.53125 C 1.570312 -11.03125 2.113281 -11.328125 2.8125 -11.421875 C 2.851562 -11.128906 3.078125 -10.695312 3.484375 -10.125 C 3.890625 -9.5625 4.300781 -9.097656 4.71875 -8.734375 C 5.90625 -7.878906 7.515625 -7.585938 9.546875 -7.859375 Z M 9.546875 -7.859375 "/></g></g><g style="fill:#c81725;fill-opacity:1;"><g transform="translate(272.790491, 90.92038)"><path style="stroke:none" d="M 20.53125 -10.46875 C 20.570312 -10.164062 20.710938 -10.03125 20.953125 -10.0625 C 21.191406 -10.09375 21.640625 -10.332031 22.296875 -10.78125 C 30.472656 -16.59375 39.328125 -24.070312 48.859375 -33.21875 C 49.441406 -32.875 49.769531 -32.40625 49.84375 -31.8125 C 49.914062 -31.226562 49.691406 -30.632812 49.171875 -30.03125 C 48.648438 -29.425781 47.90625 -28.554688 46.9375 -27.421875 C 45.976562 -26.285156 44.132812 -24.226562 41.40625 -21.25 C 38.675781 -18.28125 36.125 -15.570312 33.75 -13.125 C 27.507812 -6.664062 22.800781 -2.726562 19.625 -1.3125 C 18.613281 -0.882812 17.492188 -0.59375 16.265625 -0.4375 C 14.253906 -0.1875 13.050781 -1.613281 12.65625 -4.71875 C 12.519531 -5.789062 12.941406 -7.625 13.921875 -10.21875 C 14.910156 -12.820312 15.335938 -14.679688 15.203125 -15.796875 C 15.179688 -15.910156 15.082031 -15.957031 14.90625 -15.9375 C 14.738281 -15.914062 14.335938 -15.597656 13.703125 -14.984375 C 6.328125 -7.609375 1.910156 -2.570312 0.453125 0.125 C 0.171875 0.707031 -0.265625 1.035156 -0.859375 1.109375 C -2.148438 1.265625 -3.046875 0.742188 -3.546875 -0.453125 C -3.765625 -2.210938 -1.84375 -6.988281 2.21875 -14.78125 C 6.28125 -22.582031 11.164062 -30.859375 16.875 -39.609375 C 22.582031 -48.367188 27.351562 -54.640625 31.1875 -58.421875 C 32.269531 -59.742188 35.070312 -60.6875 39.59375 -61.25 C 40.332031 -61.164062 40.726562 -60.921875 40.78125 -60.515625 C 40.832031 -60.109375 40.675781 -59.671875 40.3125 -59.203125 C 25.425781 -40.710938 16.085938 -28.035156 12.296875 -21.171875 C 12.085938 -20.898438 11.832031 -20.429688 11.53125 -19.765625 C 11.226562 -19.109375 11.085938 -18.691406 11.109375 -18.515625 L 11.203125 -18.4375 C 11.441406 -18.46875 13.128906 -20.007812 16.265625 -23.0625 C 19.410156 -26.125 21.765625 -28.320312 23.328125 -29.65625 C 23.796875 -30.238281 24.882812 -30.640625 26.59375 -30.859375 C 28.082031 -30.859375 28.875 -30.476562 28.96875 -29.71875 C 29 -29.476562 28.960938 -29.265625 28.859375 -29.078125 C 25.285156 -22.359375 23.164062 -18.09375 22.5 -16.28125 C 21.082031 -13.28125 20.425781 -11.34375 20.53125 -10.46875 Z M 20.53125 -10.46875 "/></g></g></g></g><g clip-rule="nonzero" clip-path="url(#4b5a78c41a)"><g clip-rule="nonzero" clip-path="url(#192b6a7fdc)"><g clip-rule="nonzero" clip-path="url(#29c6bf2f13)"><path style=" stroke:none;fill-rule:nonzero;fill:#c81725;fill-opacity:0.996;" d="M 49.453125 149.292969 C 65.664062 144.242188 107.398438 135.660156 174.65625 123.554688 L 174.675781 123.550781 C 189.964844 120.9375 208.28125 118.113281 229.621094 115.082031 L 229.625 115.082031 C 234.804688 114.355469 240.828125 113.539062 247.695312 112.632812 L 247.699219 112.632812 C 296.375 106.320312 321.320312 103.0625 322.535156 102.847656 C 321.214844 103.078125 320.632812 103.878906 320.792969 105.242188 L 320.800781 105.320312 C 321.007812 106.660156 321.769531 107.277344 323.089844 107.167969 L 323.09375 107.167969 C 323.089844 107.167969 323.085938 107.167969 323.082031 107.167969 C 321.882812 107.273438 320.820312 106.386719 320.714844 105.183594 C 320.609375 103.984375 321.496094 102.921875 322.699219 102.816406 C 322.710938 102.816406 322.722656 102.8125 322.730469 102.8125 L 322.734375 102.8125 C 324.121094 102.699219 324.914062 103.3125 325.121094 104.65625 L 325.132812 104.734375 C 325.292969 106.101562 324.679688 106.90625 323.292969 107.152344 L 323.289062 107.152344 C 322.011719 107.375 297.003906 110.648438 248.261719 116.964844 L 248.265625 116.964844 C 241.410156 117.871094 235.398438 118.683594 230.234375 119.410156 L 230.238281 119.410156 C 208.933594 122.433594 190.65625 125.25 175.410156 127.859375 L 175.429688 127.855469 C 108.351562 139.929688 66.792969 148.464844 50.753906 153.464844 C 49.601562 153.824219 48.375 153.179688 48.015625 152.027344 C 47.65625 150.875 48.300781 149.652344 49.453125 149.292969 Z M 49.453125 149.292969 "/></g></g></g><g clip-rule="nonzero" clip-path="url(#03af1a43b4)"><g clip-rule="nonzero" clip-path="url(#a0e1c0f374)"><g clip-rule="nonzero" clip-path="url(#43a6bea872)"><path style=" stroke:none;fill-rule:nonzero;fill:#c81725;fill-opacity:0.996;" d="M 53.972656 154.289062 C 79.902344 146.4375 124.128906 136.023438 186.660156 123.050781 L 186.671875 123.050781 C 221.71875 115.972656 267.609375 108.417969 324.351562 100.382812 C 325.546875 100.214844 326.652344 101.046875 326.820312 102.242188 C 326.988281 103.4375 326.15625 104.542969 324.964844 104.710938 C 268.308594 112.730469 222.5 120.273438 187.535156 127.332031 L 187.546875 127.332031 C 125.144531 140.277344 81.042969 150.65625 55.238281 158.472656 C 54.085938 158.820312 52.863281 158.167969 52.515625 157.015625 C 52.164062 155.859375 52.816406 154.640625 53.972656 154.289062 Z M 53.972656 154.289062 "/></g></g></g><g clip-rule="nonzero" clip-path="url(#df2f6eff45)"><g clip-rule="nonzero" clip-path="url(#c93135b532)"><g clip-rule="nonzero" clip-path="url(#87aca53ac4)"><path style=" stroke:none;fill-rule:nonzero;fill:#c81725;fill-opacity:0.996;" d="M 55.632812 152.054688 C 71.824219 145.894531 107.113281 138.042969 161.503906 128.496094 L 161.523438 128.492188 C 192.542969 123.378906 216.292969 119.683594 232.777344 117.410156 C 260.320312 113.636719 287.21875 110.398438 313.464844 107.683594 C 314.664062 107.5625 315.738281 108.433594 315.863281 109.632812 C 315.988281 110.835938 315.113281 111.90625 313.914062 112.03125 C 287.714844 114.738281 260.867188 117.972656 233.371094 121.738281 C 216.925781 124.007812 193.214844 127.695312 162.234375 132.800781 L 162.257812 132.800781 C 108.140625 142.296875 73.117188 150.078125 57.1875 156.136719 C 56.058594 156.566406 54.796875 156 54.371094 154.871094 C 53.941406 153.746094 54.507812 152.484375 55.632812 152.054688 Z M 55.632812 152.054688 "/></g></g></g></g></svg>