<svg xmlns="http://www.w3.org/2000/svg" xmlns:xlink="http://www.w3.org/1999/xlink" width="500" zoomAndPan="magnify" viewBox="0 0 375 374.999991" height="500" preserveAspectRatio="xMidYMid meet" version="1.0"><defs><clipPath id="5396926e27"><path d="M 48 66 L 325 66 L 325 329.914062 L 48 329.914062 Z M 48 66 " clip-rule="nonzero"/></clipPath></defs><g clip-path="url(#5396926e27)"><path fill="#975aff" d="M 243.371094 174.183594 L 235.777344 180.933594 L 310.304688 264.476562 C 308.300781 268.613281 306.035156 272.683594 303.554688 276.636719 L 226.867188 190.683594 L 219.273438 197.4375 L 297.660156 285.292969 C 296.417969 286.996094 295.097656 288.699219 293.75 290.347656 C 293.242188 290.984375 292.425781 291.390625 290.089844 293.167969 C 281.714844 283.925781 273.355469 274.761719 265.03125 265.617188 L 208.613281 202.34375 L 200.992188 209.960938 L 310.179688 331.84375 L 182.554688 331.84375 C 83.144531 331.84375 17.558594 225.929688 64.378906 138.203125 C 65.117188 136.828125 65.878906 135.460938 66.664062 134.085938 C 106.226562 65.324219 198.050781 44.90625 264.167969 90.207031 C 318.277344 127.253906 337.296875 196.472656 314.796875 254.242188 Z M 243.371094 174.183594 " fill-opacity="1" fill-rule="nonzero"/></g></svg>